<svg width="189" height="39" viewBox="0 0 189 39" fill="none" xmlns="http://www.w3.org/2000/svg">
<path d="M13.8118 6.23798H8.11841V32.7623H13.8118V6.23798Z" fill="white"/>
<path d="M32.19 9.55563H4.81V14.7936H32.19V9.55563Z" fill="white"/>
<path d="M24.6355 31.9749C28.3248 31.9749 31.3156 28.9841 31.3156 25.2948C31.3156 21.6055 28.3248 18.6148 24.6355 18.6148C20.9463 18.6148 17.9555 21.6055 17.9555 25.2948C17.9555 28.9841 20.9463 31.9749 24.6355 31.9749Z" fill="white"/>
<path d="M51.672 30.168C51.1813 30.5307 50.5733 30.808 49.848 31C49.144 31.1707 48.408 31.256 47.64 31.256C45.5707 31.256 43.9813 30.7333 42.872 29.688C41.7627 28.6427 41.208 27.1067 41.208 25.08V9.976H46.2V14.168H50.456V18.008H46.2V25.016C46.2 25.7413 46.3813 26.3067 46.744 26.712C47.1067 27.096 47.6293 27.288 48.312 27.288C49.08 27.288 49.7627 27.0747 50.36 26.648L51.672 30.168ZM54.4915 31V13.784H59.4835V31H54.4915ZM56.9875 11.384C56.0702 11.384 55.3235 11.1173 54.7475 10.584C54.1715 10.0507 53.8835 9.38933 53.8835 8.6C53.8835 7.81067 54.1715 7.14933 54.7475 6.616C55.3235 6.08267 56.0702 5.816 56.9875 5.816C57.9048 5.816 58.6515 6.072 59.2275 6.584C59.8035 7.07467 60.0915 7.71467 60.0915 8.504C60.0915 9.336 59.8035 10.0293 59.2275 10.584C58.6728 11.1173 57.9262 11.384 56.9875 11.384ZM86.1645 13.528C87.5298 13.528 88.7352 13.8053 89.7805 14.36C90.8472 14.8933 91.6792 15.7253 92.2765 16.856C92.8952 17.9653 93.2045 19.3947 93.2045 21.144V31H88.2125V21.912C88.2125 20.5253 87.9245 19.5013 87.3485 18.84C86.7725 18.1787 85.9618 17.848 84.9165 17.848C84.1912 17.848 83.5405 18.0187 82.9645 18.36C82.3885 18.68 81.9405 19.1707 81.6205 19.832C81.3005 20.4933 81.1405 21.336 81.1405 22.36V31H76.1485V21.912C76.1485 20.5253 75.8605 19.5013 75.2845 18.84C74.7298 18.1787 73.9298 17.848 72.8845 17.848C72.1592 17.848 71.5085 18.0187 70.9325 18.36C70.3565 18.68 69.9085 19.1707 69.5885 19.832C69.2685 20.4933 69.1085 21.336 69.1085 22.36V31H64.1165V13.784H68.8845V18.488L67.9885 17.112C68.5858 15.9387 69.4285 15.0533 70.5165 14.456C71.6258 13.8373 72.8845 13.528 74.2925 13.528C75.8712 13.528 77.2472 13.9333 78.4205 14.744C79.6152 15.5333 80.4045 16.7493 80.7885 18.392L79.0285 17.912C79.6045 16.568 80.5218 15.5013 81.7805 14.712C83.0605 13.9227 84.5218 13.528 86.1645 13.528ZM106.348 31.256C104.385 31.256 102.657 30.872 101.164 30.104C99.692 29.336 98.5507 28.2907 97.74 26.968C96.9293 25.624 96.524 24.0987 96.524 22.392C96.524 20.664 96.9187 19.1387 97.708 17.816C98.5187 16.472 99.6173 15.4267 101.004 14.68C102.391 13.912 103.959 13.528 105.708 13.528C107.393 13.528 108.908 13.8907 110.252 14.616C111.617 15.32 112.695 16.344 113.484 17.688C114.273 19.0107 114.668 20.6 114.668 22.456C114.668 22.648 114.657 22.872 114.636 23.128C114.615 23.3627 114.593 23.5867 114.572 23.8H100.588V20.888H111.948L110.028 21.752C110.028 20.856 109.847 20.0773 109.484 19.416C109.121 18.7547 108.62 18.2427 107.98 17.88C107.34 17.496 106.593 17.304 105.74 17.304C104.887 17.304 104.129 17.496 103.468 17.88C102.828 18.2427 102.327 18.7653 101.964 19.448C101.601 20.1093 101.42 20.8987 101.42 21.816V22.584C101.42 23.5227 101.623 24.3547 102.028 25.08C102.455 25.784 103.041 26.328 103.788 26.712C104.556 27.0747 105.452 27.256 106.476 27.256C107.393 27.256 108.193 27.1173 108.876 26.84C109.58 26.5627 110.22 26.1467 110.796 25.592L113.452 28.472C112.663 29.368 111.671 30.0613 110.476 30.552C109.281 31.0213 107.905 31.256 106.348 31.256ZM128.456 13.528C129.821 13.528 131.037 13.8053 132.104 14.36C133.192 14.8933 134.045 15.7253 134.664 16.856C135.282 17.9653 135.592 19.3947 135.592 21.144V31H130.6V21.912C130.6 20.5253 130.29 19.5013 129.672 18.84C129.074 18.1787 128.221 17.848 127.112 17.848C126.322 17.848 125.608 18.0187 124.968 18.36C124.349 18.68 123.858 19.1813 123.496 19.864C123.154 20.5467 122.984 21.4213 122.984 22.488V31H117.992V13.784H122.76V18.552L121.864 17.112C122.482 15.96 123.368 15.0747 124.52 14.456C125.672 13.8373 126.984 13.528 128.456 13.528ZM148.786 31.256C146.823 31.256 145.095 30.872 143.602 30.104C142.13 29.336 140.988 28.2907 140.178 26.968C139.367 25.624 138.962 24.0987 138.962 22.392C138.962 20.664 139.356 19.1387 140.146 17.816C140.956 16.472 142.055 15.4267 143.442 14.68C144.828 13.912 146.396 13.528 148.146 13.528C149.831 13.528 151.346 13.8907 152.69 14.616C154.055 15.32 155.132 16.344 155.922 17.688C156.711 19.0107 157.106 20.6 157.106 22.456C157.106 22.648 157.095 22.872 157.074 23.128C157.052 23.3627 157.031 23.5867 157.01 23.8H143.026V20.888H154.385L152.466 21.752C152.466 20.856 152.284 20.0773 151.922 19.416C151.559 18.7547 151.058 18.2427 150.418 17.88C149.778 17.496 149.031 17.304 148.178 17.304C147.324 17.304 146.567 17.496 145.906 17.88C145.266 18.2427 144.764 18.7653 144.402 19.448C144.039 20.1093 143.858 20.8987 143.858 21.816V22.584C143.858 23.5227 144.06 24.3547 144.466 25.08C144.892 25.784 145.479 26.328 146.226 26.712C146.994 27.0747 147.89 27.256 148.914 27.256C149.831 27.256 150.631 27.1173 151.314 26.84C152.018 26.5627 152.658 26.1467 153.234 25.592L155.89 28.472C155.1 29.368 154.108 30.0613 152.914 30.552C151.719 31.0213 150.343 31.256 148.786 31.256ZM166.221 31.256C164.749 31.256 163.33 31.0853 161.965 30.744C160.621 30.3813 159.554 29.9333 158.765 29.4L160.429 25.816C161.218 26.3067 162.146 26.712 163.213 27.032C164.301 27.3307 165.368 27.48 166.413 27.48C167.565 27.48 168.376 27.3413 168.845 27.064C169.336 26.7867 169.581 26.4027 169.581 25.912C169.581 25.5067 169.389 25.208 169.005 25.016C168.642 24.8027 168.152 24.6427 167.533 24.536C166.914 24.4293 166.232 24.3227 165.485 24.216C164.76 24.1093 164.024 23.9707 163.277 23.8C162.53 23.608 161.848 23.3307 161.229 22.968C160.61 22.6053 160.109 22.1147 159.725 21.496C159.362 20.8773 159.181 20.0773 159.181 19.096C159.181 18.008 159.49 17.048 160.109 16.216C160.749 15.384 161.666 14.7333 162.861 14.264C164.056 13.7733 165.485 13.528 167.149 13.528C168.322 13.528 169.517 13.656 170.733 13.912C171.949 14.168 172.962 14.5413 173.773 15.032L172.109 18.584C171.277 18.0933 170.434 17.7627 169.581 17.592C168.749 17.4 167.938 17.304 167.149 17.304C166.04 17.304 165.229 17.4533 164.717 17.752C164.205 18.0507 163.949 18.4347 163.949 18.904C163.949 19.3307 164.13 19.6507 164.493 19.864C164.877 20.0773 165.378 20.248 165.997 20.376C166.616 20.504 167.288 20.6213 168.013 20.728C168.76 20.8133 169.506 20.952 170.253 21.144C171 21.336 171.672 21.6133 172.269 21.976C172.888 22.3173 173.389 22.7973 173.773 23.416C174.157 24.0133 174.349 24.8027 174.349 25.784C174.349 26.8507 174.029 27.8 173.389 28.632C172.749 29.4427 171.821 30.0827 170.605 30.552C169.41 31.0213 167.949 31.256 166.221 31.256ZM187.797 30.168C187.306 30.5307 186.698 30.808 185.973 31C185.269 31.1707 184.533 31.256 183.765 31.256C181.696 31.256 180.106 30.7333 178.997 29.688C177.888 28.6427 177.333 27.1067 177.333 25.08V9.976H182.325V14.168H186.581V18.008H182.325V25.016C182.325 25.7413 182.506 26.3067 182.869 26.712C183.232 27.096 183.754 27.288 184.437 27.288C185.205 27.288 185.888 27.0747 186.485 26.648L187.797 30.168Z" fill="white"/>
</svg>
