<svg width="1440" height="95" viewBox="0 0 1440 95" fill="none" xmlns="http://www.w3.org/2000/svg">
<path d="M1525.06 1.0137C1525.45 1.0137 1521.61 3.55007 1521.61 3.82183C1521.61 4.09358 1528 4.09358 1528 4.36534C1528 4.63709 1521.61 4.64465 1521.61 4.9164C1521.61 5.18816 1528 5.18816 1528 5.45991C1528 5.73166 1521.61 5.73165 1521.61 6.01095C1521.61 6.29025 1528 6.28271 1528 6.55446C1528 6.82621 1521.61 6.82622 1521.61 7.09797C1521.61 7.36972 1528 7.37728 1528 7.64903C1528 7.92079 1521.61 7.92079 1521.61 8.19254C1521.61 8.4643 1528 8.47183 1528 8.74359C1528 9.01534 1521.61 9.01535 1521.61 9.29465C1521.61 9.57395 1528 9.5664 1528 9.83816C1528 10.1099 1521.61 10.1175 1521.61 10.3892C1521.61 10.661 1528 10.661 1528 10.9327C1528 11.2045 1521.61 11.212 1521.61 11.4838C1521.61 11.7555 1528 11.7555 1528 12.0273C1528 12.299 1521.61 12.299 1521.61 12.5708C1521.61 12.8425 1528 12.8426 1528 13.1219C1528 13.4012 1521.61 13.3936 1521.61 13.6654C1521.61 13.9371 1528 13.9371 1528 14.2089C1528 14.4806 1521.61 14.4806 1521.61 14.7524C1521.61 15.0241 1528 15.0241 1528 15.3034C1528 15.5827 1521.61 15.5752 1521.61 15.8469C1521.61 16.1187 1528 16.1262 1528 16.398C1528 16.6698 1521.61 16.6697 1521.61 16.949C1521.61 17.2283 1528 17.2208 1528 17.4925C1528 17.7643 1521.61 17.7643 1521.61 18.0436C1521.61 18.3229 1528 18.3154 1528 18.5871C1528 18.8589 1521.61 18.8589 1521.61 19.1306C1521.61 19.4024 1528 19.4024 1528 19.6817C1528 19.961 1521.61 19.9535 1521.61 20.2252C1521.61 20.497 1528 20.497 1528 20.7687C1528 21.0405 1521.61 21.0405 1521.61 21.3122C1521.61 21.584 1528 21.584 1528 21.8633C1528 22.1426 1521.61 22.135 1521.61 22.4068C1521.61 22.6785 1528 22.6785 1528 22.9503C1528 23.222 1521.61 23.222 1521.61 23.4938C1521.61 23.7655 1528 23.7731 1528 24.0449C1528 24.3166 1521.61 24.3166 1521.61 24.5884C1521.61 24.8601 1528 24.8677 1528 25.1394C1528 25.4112 1521.61 25.4112 1521.61 25.6905C1521.61 25.9698 1528 25.9622 1528 26.2415C1528 26.5208 1521.61 26.5133 1521.61 26.785C1521.61 27.0568 1528 27.0643 1528 27.3361C1528 27.6078 1521.61 27.6078 1521.61 27.8796C1521.61 28.1513 1528 28.1589 1528 28.4307C1528 28.7024 1521.61 28.7024 1521.61 28.9742C1521.61 29.2459 1528 29.2535 1528 29.5252C1528 29.797 1521.61 29.797 1521.61 30.0687C1521.61 30.3405 1528 30.348 1528 30.6198C1528 30.8915 1521.61 30.8991 1521.61 31.1708C1521.61 31.4426 1528 31.4426 1528 31.7219C1528 32.0012 1521.61 31.9937 1521.61 32.273C1521.61 32.5523 1528 32.5447 1528 32.8165C1528 33.0882 1521.61 33.0958 1521.61 33.3675C1521.61 33.6393 1528 33.6393 1528 33.9186C1528 34.1979 1521.61 34.1903 1521.61 34.4621C1521.61 34.7338 1528 34.7414 1528 35.0131C1528 35.2849 1521.61 35.2924 1521.61 35.5642C1521.61 35.8359 1528 35.8359 1528 36.1152C1528 36.3946 1521.61 36.387 1521.61 36.6663C1521.61 36.9456 1528 36.9381 1528 37.2098C1528 37.4816 1521.61 37.4891 1521.61 37.7609C1521.61 38.0326 1528 38.0326 1528 38.3044C1528 38.5761 1521.61 38.5761 1521.61 38.8554C1521.61 39.1347 1528 39.1272 1528 39.3989C1528 39.6707 1521.61 39.6782 1521.61 39.95C1521.61 40.2217 1528 40.2293 1528 40.5011C1528 40.7728 1521.61 40.7804 1521.61 41.0521C1521.61 41.3239 1528 41.3239 1528 41.6032C1528 41.8825 1521.61 41.8749 1521.61 42.1542C1521.61 42.4335 1528 42.426 1528 42.7053C1528 42.9846 1521.61 42.977 1521.61 43.2563C1521.61 43.5356 1528 43.5281 1528 43.8074C1528 44.0867 1521.61 44.0867 1521.61 44.3585C1521.61 44.6302 1528 44.6377 1528 44.9095C1528 45.1813 1521.61 45.1888 1521.61 45.4606C1521.61 45.7323 1528 45.7399 1528 46.0192C1528 46.2985 1521.61 46.2909 1521.61 46.5702C1521.61 46.8495 1528 46.8495 1528 47.1289C1528 47.4082 1521.61 47.4006 1521.61 47.6799C1521.61 47.9592 1528 47.9516 1528 48.2309C1528 48.5102 1521.61 48.5027 1521.61 48.7745C1521.61 49.0462 1528 49.0462 1528 49.318C1528 49.5897 1521.61 49.5972 1521.61 49.869C1521.61 50.1407 1528 50.1408 1528 50.4125C1528 50.6843 1521.61 50.6918 1521.61 50.9636C1521.61 51.2353 1528 51.2353 1528 51.5071C1528 51.7789 1521.61 51.7788 1521.61 52.0581C1521.61 52.3374 1528 52.3299 1528 52.6017C1528 52.8734 1521.61 52.881 1521.61 53.1527C1521.61 53.4245 1528 53.4244 1528 53.6962C1528 53.968 1521.61 53.9755 1521.61 54.2473C1521.61 54.519 1528 54.519 1528 54.7983C1528 55.0776 1521.61 55.0701 1521.61 55.3418C1521.61 55.6136 1528 55.6136 1528 55.8929C1528 56.1722 1521.61 56.1646 1521.61 56.4364C1521.61 56.7081 1528 56.7082 1528 56.9799C1528 57.2517 1521.61 57.2517 1521.61 57.5234C1521.61 57.7952 1528 57.7952 1528 58.0669C1528 58.3387 1521.61 58.3462 1521.61 58.618C1521.61 58.8897 1528 58.8898 1528 59.1615C1528 59.4333 1521.61 59.4332 1521.61 59.705C1521.61 59.9767 1528 59.9843 1528 60.256C1528 60.5278 1521.61 60.5278 1521.61 60.8071C1521.61 61.0864 1528 61.0789 1528 61.3506C1528 61.6224 1521.61 61.6299 1521.61 61.9017C1521.61 62.1734 1528 62.1734 1528 62.4452C1528 62.7169 1521.61 62.7169 1521.61 62.9962C1521.61 63.2755 1528 63.268 1528 63.5398C1528 63.8115 1521.61 63.8115 1521.61 64.0832C1521.61 64.355 1528 64.355 1528 64.6343C1528 64.9136 1521.61 64.9061 1521.61 65.1778C1521.61 65.4496 1528 65.4495 1528 65.7213C1528 65.9931 1521.61 65.9931 1521.61 66.2648C1521.61 66.5366 1528 66.5366 1528 66.8159C1528 67.0952 1521.61 67.0877 1521.61 67.3594C1521.61 67.6312 1528 67.6311 1528 67.9029C1528 68.1747 1521.61 68.1747 1521.61 68.454C1521.61 68.7333 1528 68.7257 1528 68.9975C1528 69.2692 1521.61 69.2692 1521.61 69.5485C1521.61 69.8278 1528 69.8203 1528 70.0996C1528 70.3789 1521.61 70.3713 1521.61 70.6431C1521.61 70.9148 1528 70.9224 1528 71.1941C1528 71.4659 1521.61 71.4659 1521.61 71.7452C1521.61 72.0245 1528 72.0169 1528 72.2887C1528 72.5605 1521.61 72.5605 1521.61 72.8398C1521.61 73.1191 1528 73.1115 1528 73.3833C1528 73.655 1521.61 73.655 1521.61 73.9343C1521.61 74.2136 1528 74.2061 1528 74.4778C1528 74.7496 1521.61 74.7571 1521.61 75.0289C1521.61 75.3006 1528 75.3007 1528 75.58C1528 75.8593 1521.61 75.8517 1521.61 76.131C1521.61 76.4103 1528 76.4027 1528 76.6745C1528 76.9463 1521.61 76.9538 1521.61 77.2256C1521.61 77.4973 1528 77.4973 1528 77.7766C1528 78.0559 1521.61 78.0484 1521.61 78.3201C1521.61 78.5919 1528 78.5994 1528 78.8712C1528 79.143 1521.61 79.1505 1521.61 79.4222C1521.61 79.694 1528 79.694 1528 79.9733C1528 80.2526 1521.61 80.2451 1521.61 80.5244C1521.61 80.8037 1528 80.7961 1528 81.0679C1528 81.3396 1521.61 81.3472 1521.61 81.6189C1521.61 81.8907 1528 81.8907 1528 82.1624C1528 82.4342 1521.61 82.4417 1521.61 82.7135C1521.61 82.9852 1528 82.9853 1528 83.257C1528 83.5288 1521.61 83.5363 1521.61 83.8081C1521.61 84.0798 1528 84.0873 1528 84.3591C1528 84.6309 1521.61 84.6384 1521.61 84.9102C1521.61 85.1819 1528 85.1819 1528 85.4612C1528 85.7405 1521.61 85.733 1521.61 86.0123C1521.61 86.2916 1528 86.284 1528 86.5634C1528 86.8427 1521.61 86.8351 1521.61 87.1144C1521.61 87.3937 1528 87.3861 1528 87.6654C1528 87.9447 1521.61 87.9372 1521.61 88.2165C1521.61 88.4958 1528 88.4883 1528 88.7676C1528 89.0469 1521.61 89.0469 1521.61 89.3186C1521.61 89.5904 1528 89.5904 1528 89.8697C1528 90.149 1521.61 90.149 1521.61 90.4207C1521.61 90.6925 1528 90.7 1528 90.9793C1528 91.2586 1521.61 91.2586 1521.61 91.5304C1521.61 91.8021 1525.46 94.3234 1525.07 94.3461C1520.36 94.6254 1520.08 89.8168 1515.35 89.8168C1510.61 89.8168 1510.62 94.3461 1505.89 94.3461C1501.17 94.3461 1501.16 89.8168 1496.43 89.8168C1491.71 89.8168 1491.71 94.3461 1486.97 94.3461C1482.23 94.3461 1482.24 89.8168 1477.52 89.8168C1472.79 89.8168 1472.79 94.3461 1468.07 94.3461C1463.34 94.3461 1463.34 89.8168 1458.61 89.8168C1453.87 89.8168 1453.88 94.3461 1449.16 94.3461C1444.43 94.3461 1444.43 89.8168 1439.7 89.8168C1434.98 89.8168 1434.97 94.3461 1430.24 94.3461C1425.52 94.3461 1425.52 89.8168 1420.78 89.8168C1416.04 89.8168 1416.05 94.3461 1411.33 94.3461C1406.6 94.3461 1406.59 89.8168 1401.87 89.8168C1397.14 89.8168 1397.14 94.3461 1392.42 94.3461C1387.69 94.3461 1387.68 89.8168 1382.95 89.8168C1378.23 89.8168 1378.23 94.3461 1373.5 94.3461C1368.78 94.3461 1368.77 89.8168 1364.04 89.8168C1359.32 89.8168 1359.32 94.3461 1354.58 94.3461C1349.84 94.3461 1349.85 89.8168 1345.13 89.8168C1340.4 89.8168 1340.39 94.3461 1335.67 94.3461C1330.94 94.3461 1330.94 89.8168 1326.2 89.8168C1321.47 89.8168 1321.48 94.3461 1316.75 94.3461C1312.03 94.3461 1312.03 89.8168 1307.29 89.8168C1302.56 89.8168 1302.57 94.3461 1297.83 94.3461C1293.09 94.3461 1293.1 89.8168 1288.38 89.8168C1283.65 89.8168 1283.64 94.3461 1278.92 94.3461C1274.19 94.3461 1274.19 89.8168 1269.45 89.8168C1264.72 89.8168 1264.73 94.3461 1260 94.3461C1255.28 94.3461 1255.27 89.8168 1250.54 89.8168C1245.82 89.8168 1245.81 94.3461 1241.08 94.3461C1236.35 94.3461 1236.35 89.8168 1231.62 89.8168C1226.88 89.8168 1226.89 94.3461 1222.17 94.3461C1217.44 94.3461 1217.43 89.8168 1212.71 89.8168C1207.98 89.8168 1207.97 94.3461 1203.24 94.3461C1198.52 94.3461 1198.52 89.8168 1193.78 89.8168C1189.05 89.8168 1189.06 94.3461 1184.32 94.3461C1179.58 94.3461 1179.59 89.8168 1174.87 89.8168C1170.14 89.8168 1170.13 94.3461 1165.41 94.3461C1160.68 94.3461 1160.67 89.8168 1155.94 89.8168C1151.22 89.8168 1151.21 94.3461 1146.48 94.3461C1141.76 94.3461 1141.76 89.8168 1137.02 89.8168C1132.28 89.8168 1132.3 94.3461 1127.56 94.3461C1122.82 94.3461 1122.83 89.8168 1118.1 89.8168C1113.36 89.8168 1113.37 94.3461 1108.64 94.3461C1103.9 94.3461 1103.91 89.8168 1099.17 89.8168C1094.44 89.8168 1094.45 94.3461 1089.72 94.3461C1085 94.3461 1084.99 89.8168 1080.26 89.8168C1075.54 89.8168 1075.52 94.3461 1070.8 94.3461C1066.07 94.3461 1066.06 89.8168 1061.34 89.8168C1056.61 89.8168 1056.6 94.3461 1051.88 94.3461C1047.15 94.3461 1047.14 89.8168 1042.41 89.8168C1037.69 89.8168 1037.68 94.3461 1032.94 94.3461C1028.2 94.3461 1028.22 89.8168 1023.49 89.8168C1018.76 89.8168 1018.75 94.3461 1014.02 94.3461C1009.28 94.3461 1009.29 89.8168 1004.56 89.8168C999.819 89.8168 999.83 94.3461 995.094 94.3461C990.357 94.3461 990.368 89.8168 985.632 89.8168C980.896 89.8168 980.906 94.3461 976.181 94.3461C971.455 94.3461 971.444 89.8168 966.719 89.8168C961.993 89.8168 961.983 94.3461 957.257 94.3461C952.531 94.3461 952.531 89.8168 947.795 89.8168C943.059 89.8168 943.07 94.3461 938.333 94.3461C933.597 94.3461 933.608 89.8168 928.871 89.8168C924.135 89.8168 924.146 94.3461 919.41 94.3461C914.673 94.3461 914.684 89.8168 909.948 89.8168C905.212 89.8168 905.222 94.3461 900.486 94.3461C895.75 94.3461 895.76 89.8168 891.024 89.8168C886.288 89.8168 886.299 94.3461 881.562 94.3461C876.826 94.3461 876.826 89.8168 872.1 89.8168C867.375 89.8168 867.364 94.3461 862.639 94.3461C857.913 94.3461 857.902 89.8168 853.166 89.8168C848.43 89.8168 848.441 94.3461 843.704 94.3461C838.968 94.3461 838.968 89.8168 834.242 89.8168C829.517 89.8168 829.506 94.3461 824.77 94.3461C820.034 94.3461 820.044 89.8168 815.308 89.8168C810.572 89.8168 810.583 94.3461 805.846 94.3461C801.11 94.3461 801.11 89.8168 796.385 89.8168C791.659 89.8168 791.648 94.3461 786.912 94.3461C782.176 94.3461 782.176 89.8168 777.44 89.8168C772.703 89.8168 772.703 94.3461 767.967 94.3461C763.231 94.3461 763.231 89.8168 758.495 89.8168C753.758 89.8168 753.769 94.3461 749.043 94.3461C744.318 94.3461 744.318 89.8168 739.582 89.8168C734.845 89.8168 734.856 94.3461 730.12 94.3461C725.384 94.3461 725.394 89.8168 720.669 89.8168C715.943 89.8168 715.943 94.3461 711.207 94.3461C706.471 94.3461 706.481 89.8168 701.756 89.8168C697.03 89.8168 697.03 94.3461 692.304 94.3461C687.579 94.3461 687.579 89.8168 682.853 89.8168C678.128 89.8168 678.117 94.3461 673.391 94.3461C668.666 94.3461 668.666 89.8168 663.94 89.8168C659.215 89.8168 659.204 94.3461 654.478 94.3461C649.753 94.3461 649.742 89.8168 645.017 89.8168C640.291 89.8168 640.291 94.3461 635.555 94.3461C630.818 94.3461 630.829 89.8168 626.104 89.8168C621.378 89.8168 621.378 94.3461 616.652 94.3461C611.927 94.3461 611.916 89.8168 607.191 89.8168C602.465 89.8168 602.465 94.3461 597.739 94.3461C593.014 94.3461 593.003 89.8168 588.278 89.8168C583.552 89.8168 583.541 94.3461 578.816 94.3461C574.09 94.3461 574.09 89.8168 569.354 89.8168C564.618 89.8168 564.628 94.3461 559.903 94.3461C555.177 94.3461 555.177 89.8168 550.441 89.8168C545.705 89.8168 545.715 94.3461 540.99 94.3461C536.264 94.3461 536.253 89.8168 531.528 89.8168C526.802 89.8168 526.792 94.3461 522.066 94.3461C517.34 94.3461 517.34 89.8168 512.604 89.8168C507.868 89.8168 507.879 94.3461 503.153 94.3461C498.427 94.3461 498.427 89.8168 493.691 89.8168C488.955 89.8168 488.966 94.3461 484.229 94.3461C479.493 94.3461 479.504 89.8168 474.768 89.8168C470.031 89.8168 470.042 94.3461 465.316 94.3461C460.591 94.3461 460.58 89.8168 455.855 89.8168C451.129 89.8168 451.129 94.3461 446.393 94.3461C441.656 94.3461 441.667 89.8168 436.931 89.8168C432.195 89.8168 432.205 94.3461 427.48 94.3461C422.754 94.3461 422.743 89.8168 418.018 89.8168C413.292 89.8168 413.282 94.3461 408.556 94.3461C403.83 94.3461 403.83 89.8168 399.094 89.8168C394.358 89.8168 394.369 94.3461 389.632 94.3461C384.896 94.3461 384.907 89.8168 380.171 89.8168C375.434 89.8168 375.445 94.3461 370.719 94.3461C365.994 94.3461 365.983 89.8168 361.258 89.8168C356.532 89.8168 356.521 94.3461 351.796 94.3461C347.07 94.3461 347.059 89.8168 342.334 89.8168C337.608 89.8168 337.598 94.3461 332.872 94.3461C328.146 94.3461 328.136 89.8168 323.41 89.8168C318.685 89.8168 318.674 94.3461 313.948 94.3461C309.223 94.3461 309.212 89.8168 304.487 89.8168C299.761 89.8168 299.761 94.3461 295.025 94.3461C290.288 94.3461 290.299 89.8168 285.563 89.8168C280.827 89.8168 280.837 94.3461 276.101 94.3461C271.365 94.3461 271.375 89.8168 266.639 89.8168C261.903 89.8168 261.903 94.3461 257.177 94.3461C252.452 94.3461 252.441 89.8168 247.716 89.8168C242.99 89.8168 242.979 94.3461 238.254 94.3461C233.528 94.3461 233.518 89.8168 228.792 89.8168C224.066 89.8168 224.056 94.3461 219.33 94.3461C214.604 94.3461 214.594 89.8168 209.868 89.8168C205.143 89.8168 205.143 94.3461 200.406 94.3461C195.67 94.3461 195.681 89.8168 190.955 89.8168C186.23 89.8168 186.219 94.3461 181.493 94.3461C176.768 94.3461 176.757 89.8168 172.032 89.8168C167.306 89.8168 167.295 94.3461 162.57 94.3461C157.844 94.3461 157.834 89.8168 153.108 89.8168C148.382 89.8168 148.372 94.3461 143.646 94.3461C138.921 94.3461 138.91 89.8168 134.184 89.8168C129.459 89.8168 129.448 94.3461 124.722 94.3461C119.997 94.3461 119.986 89.8168 115.25 89.8168C110.514 89.8168 110.524 94.3461 105.788 94.3461C101.052 94.3461 101.063 89.8168 96.3263 89.8168C91.5901 89.8168 91.5901 94.3461 86.8645 94.3461C82.1389 94.3461 82.1282 89.8168 77.392 89.8168C72.6558 89.8168 72.6664 94.3461 67.9302 94.3461C63.1939 94.3461 63.1939 89.8168 58.4683 89.8168C53.7428 89.8168 53.7321 94.3461 49.0065 94.3461C44.2809 94.3461 44.2703 89.8168 39.534 89.8168C34.7978 89.8168 34.8084 94.3461 30.0722 94.3461C25.336 94.3461 25.336 89.8168 20.5997 89.8168C15.8635 89.8168 15.8741 94.3461 11.1379 94.3461C6.40168 94.3461 6.40168 89.8168 1.66544 89.8168C-3.0708 89.8168 -3.34752 94.6103 -8.07311 94.3461C-8.45627 94.3461 -4.61406 91.8172 -4.61406 91.5455C-4.61406 91.2737 -11 91.2662 -11 90.9944C-11 90.7227 -4.61406 90.7227 -4.61406 90.4509C-4.61406 90.1792 -11 90.1792 -11 89.8999C-11 89.6206 -4.61406 89.6281 -4.61406 89.3564C-4.61406 89.0846 -11 89.0846 -11 88.8129C-11 88.5411 -4.61406 88.5336 -4.61406 88.2618C-4.61406 87.9901 -11 87.99 -11 87.7183C-11 87.4465 -4.61406 87.439 -4.61406 87.1672C-4.61406 86.8955 -11 86.8955 -11 86.6162C-11 86.3369 -4.61406 86.3444 -4.61406 86.0727C-4.61406 85.8009 -11 85.7934 -11 85.5216C-11 85.2499 -4.61406 85.2498 -4.61406 84.9781C-4.61406 84.7063 -11 84.6988 -11 84.4271C-11 84.1553 -4.61406 84.1553 -4.61406 83.876C-4.61406 83.5967 -11 83.6042 -11 83.3325C-11 83.0607 -4.61406 83.0607 -4.61406 82.789C-4.61406 82.5172 -11 82.5172 -11 82.2455C-11 81.9737 -4.61406 81.9737 -4.61406 81.702C-4.61406 81.4302 -11 81.4302 -11 81.1584C-11 80.8867 -4.61406 80.8792 -4.61406 80.6074C-4.61406 80.3356 -11 80.3356 -11 80.0639C-11 79.7921 -4.61406 79.7921 -4.61406 79.5128C-4.61406 79.2335 -11 79.2411 -11 78.9693C-11 78.6976 -4.61406 78.69 -4.61406 78.4183C-4.61406 78.1465 -11 78.1465 -11 77.8672C-11 77.5879 -4.61406 77.5955 -4.61406 77.3237C-4.61406 77.052 -11 77.0519 -11 76.7802C-11 76.5084 -4.61406 76.5009 -4.61406 76.2292C-4.61406 75.9574 -11 75.9574 -11 75.6856C-11 75.4139 -4.61406 75.4139 -4.61406 75.1421C-4.61406 74.8704 -11 74.8704 -11 74.591C-11 74.3117 -4.61406 74.3193 -4.61406 74.0476C-4.61406 73.7758 -11 73.7758 -11 73.5041C-11 73.2323 -4.61406 73.2323 -4.61406 72.9605C-4.61406 72.6888 -11 72.6888 -11 72.4095C-11 72.1302 -4.61406 72.1377 -4.61406 71.866C-4.61406 71.5942 -11 71.5942 -11 71.3225C-11 71.0507 -4.61406 71.0432 -4.61406 70.7714C-4.61406 70.4996 -11 70.4997 -11 70.2204C-11 69.9411 -4.61406 69.9486 -4.61406 69.6769C-4.61406 69.4051 -11 69.3975 -11 69.1258C-11 68.854 -4.61406 68.854 -4.61406 68.5747C-4.61406 68.2954 -11 68.303 -11 68.0313C-11 67.7595 -4.61406 67.7519 -4.61406 67.4802C-4.61406 67.2084 -11 67.2084 -11 66.9367C-11 66.6649 -4.61406 66.6573 -4.61406 66.3856C-4.61406 66.1138 -11 66.1139 -11 65.8421C-11 65.5704 -4.61406 65.5628 -4.61406 65.2911C-4.61406 65.0193 -11 65.0193 -11 64.74C-11 64.4607 -4.61406 64.4682 -4.61406 64.1965C-4.61406 63.9247 -11 63.9172 -11 63.6454C-11 63.3737 -4.61406 63.3661 -4.61406 63.0944C-4.61406 62.8226 -11 62.8226 -11 62.5433C-11 62.264 -4.61406 62.2716 -4.61406 61.9923C-4.61406 61.713 -11 61.7205 -11 61.4487C-11 61.177 -4.61406 61.1695 -4.61406 60.8977C-4.61406 60.626 -11 60.6259 -11 60.3466C-11 60.0673 -4.61406 60.0749 -4.61406 59.7956C-4.61406 59.5163 -11 59.5238 -11 59.2521C-11 58.9803 -4.61406 58.9728 -4.61406 58.701C-4.61406 58.4292 -11 58.4217 -11 58.15C-11 57.8782 -4.61406 57.8782 -4.61406 57.6064C-4.61406 57.3347 -11 57.3347 -11 57.0554C-11 56.7761 -4.61406 56.7837 -4.61406 56.5119C-4.61406 56.2402 -11 56.2326 -11 55.9608C-11 55.6891 -4.61406 55.6815 -4.61406 55.4098C-4.61406 55.138 -11 55.138 -11 54.8587C-11 54.5794 -4.61406 54.5869 -4.61406 54.3076C-4.61406 54.0283 -11 54.0359 -11 53.7642C-11 53.4924 -4.61406 53.4849 -4.61406 53.2131C-4.61406 52.9414 -11 52.9338 -11 52.662C-11 52.3903 -4.61406 52.3827 -4.61406 52.111C-4.61406 51.8392 -11 51.8317 -11 51.5524C-11 51.2731 -4.61406 51.2806 -4.61406 51.0013C-4.61406 50.722 -11 50.7296 -11 50.4503C-11 50.171 -4.61406 50.1785 -4.61406 49.8992C-4.61406 49.6199 -11 49.6275 -11 49.3482C-11 49.0689 -4.61406 49.0688 -4.61406 48.7895C-4.61406 48.5102 -11 48.5178 -11 48.2385C-11 47.9592 -4.61406 47.9592 -4.61406 47.6799C-4.61406 47.4006 -11 47.4081 -11 47.1364C-11 46.8646 -4.61406 46.8646 -4.61406 46.5853C-4.61406 46.306 -11 46.3136 -11 46.0418C-11 45.7701 -4.61406 45.7701 -4.61406 45.4983C-4.61406 45.2266 -11 45.219 -11 44.9473C-11 44.6755 -4.61406 44.6755 -4.61406 44.4038C-4.61406 44.132 -11 44.132 -11 43.8527C-11 43.5734 -4.61406 43.5809 -4.61406 43.3092C-4.61406 43.0374 -11 43.0374 -11 42.7581C-11 42.4788 -4.61406 42.4864 -4.61406 42.2146C-4.61406 41.9429 -11 41.9353 -11 41.6636C-11 41.3918 -4.61406 41.3918 -4.61406 41.1125C-4.61406 40.8332 -11 40.8407 -11 40.569C-11 40.2972 -4.61406 40.2973 -4.61406 40.0179C-4.61406 39.7386 -11 39.7462 -11 39.4744C-11 39.2027 -4.61406 39.1951 -4.61406 38.9234C-4.61406 38.6516 -11 38.6516 -11 38.3799C-11 38.1081 -4.61406 38.1081 -4.61406 37.8364C-4.61406 37.5646 -11 37.5646 -11 37.2929C-11 37.0211 -4.61406 37.0211 -4.61406 36.7493C-4.61406 36.4776 -11 36.4776 -11 36.1983C-11 35.919 -4.61406 35.9265 -4.61406 35.6548C-4.61406 35.383 -11 35.383 -11 35.1113C-11 34.8395 -4.61406 34.832 -4.61406 34.5602C-4.61406 34.2885 -11 34.2885 -11 34.0092C-11 33.7298 -4.61406 33.7374 -4.61406 33.4656C-4.61406 33.1939 -11 33.1864 -11 32.9146C-11 32.6428 -4.61406 32.6428 -4.61406 32.3711C-4.61406 32.0993 -11 32.0993 -11 31.82C-11 31.5407 -4.61406 31.5483 -4.61406 31.2765C-4.61406 31.0048 -11 31.0048 -11 30.733C-11 30.4613 -4.61406 30.4613 -4.61406 30.1895C-4.61406 29.9177 -11 29.9178 -11 29.6385C-11 29.3592 -4.61406 29.3667 -4.61406 29.0949C-4.61406 28.8232 -11 28.8232 -11 28.5514C-11 28.2797 -4.61406 28.2797 -4.61406 28.0079C-4.61406 27.7362 -11 27.7286 -11 27.4569C-11 27.1851 -4.61406 27.1851 -4.61406 26.9134C-4.61406 26.6416 -11 26.6416 -11 26.3623C-11 26.083 -4.61406 26.0905 -4.61406 25.8188C-4.61406 25.547 -11 25.5395 -11 25.2677C-11 24.996 -4.61406 24.9884 -4.61406 24.7167C-4.61406 24.4449 -11 24.4449 -11 24.1656C-11 23.8863 -4.61406 23.8939 -4.61406 23.6221C-4.61406 23.3504 -11 23.3504 -11 23.0711C-11 22.7918 -4.61406 22.7993 -4.61406 22.5276C-4.61406 22.2558 -11 22.2558 -11 21.9765C-11 21.6972 -4.61406 21.7047 -4.61406 21.433C-4.61406 21.1612 -11 21.1612 -11 20.8819C-11 20.6026 -4.61406 20.6102 -4.61406 20.3384C-4.61406 20.0667 -11 20.0591 -11 19.7874C-11 19.5156 -4.61406 19.5081 -4.61406 19.2363C-4.61406 18.9646 -11 18.9646 -11 18.6853C-11 18.406 -4.61406 18.4135 -4.61406 18.1342C-4.61406 17.8549 -11 17.8624 -11 17.5907C-11 17.3189 -4.61406 17.3114 -4.61406 17.0396C-4.61406 16.7679 -11 16.7679 -11 16.4886C-11 16.2093 -4.61406 16.2168 -4.61406 15.9375C-4.61406 15.6582 -11 15.6658 -11 15.394C-11 15.1223 -4.61406 15.1147 -4.61406 14.843C-4.61406 14.5712 -11 14.5637 -11 14.2919C-11 14.0201 -4.61406 14.0201 -4.61406 13.7408C-4.61406 13.4615 -11 13.4691 -11 13.1973C-11 12.9256 -4.61406 12.9256 -4.61406 12.6538C-4.61406 12.3821 -11 12.3745 -11 12.1028C-11 11.831 -4.61406 11.831 -4.61406 11.5517C-4.61406 11.2724 -11 11.28 -11 11.0007C-11 10.7214 -4.61406 10.7289 -4.61406 10.4496C-4.61406 10.1703 -11 10.1778 -11 9.90609C-11 9.63434 -4.61406 9.62678 -4.61406 9.35503C-4.61406 9.08328 -11 9.07574 -11 8.80399C-11 8.53223 -4.61406 8.52468 -4.61406 8.25292C-4.61406 7.98117 -11 7.97361 -11 7.70186C-11 7.4301 -4.61406 7.42257 -4.61406 7.15082C-4.61406 6.87906 -11 6.87152 -11 6.59222C-11 6.31292 -4.61406 6.32046 -4.61406 6.04115C-4.61406 5.76185 -11 5.76939 -11 5.49009C-11 5.21079 -4.61406 5.21835 -4.61406 4.93905C-4.61406 4.65974 -11 4.65974 -11 4.38798C-11 4.11623 -4.61406 4.10869 -4.61406 3.82938C-4.61406 3.55008 -8.45627 1.0137 -8.07311 1.0137C-3.35816 0.74195 -3.08144 5.54293 1.64415 5.54293C6.36975 5.54293 6.38039 1.0137 11.106 1.0137C15.8316 1.0137 15.8316 5.54293 20.5678 5.54293C25.304 5.54293 25.2934 1.0137 30.0296 1.0137C34.7659 1.0137 34.7552 5.54293 39.4808 5.54293C44.2064 5.54293 44.2064 1.0137 48.932 1.0137C53.6576 1.0137 53.6576 5.54293 58.3832 5.54293C63.1088 5.54293 63.1194 1.0137 67.845 1.0137C72.5706 1.0137 72.5706 5.54293 77.2962 5.54293C82.0218 5.54293 82.0218 1.0137 86.758 1.0137C91.4943 1.0137 91.4836 5.54293 96.2199 5.54293C100.956 5.54293 100.945 1.0137 105.671 1.0137C110.397 1.0137 110.407 5.54293 115.133 5.54293C119.858 5.54293 119.858 1.0137 124.584 1.0137C129.31 1.0137 129.31 5.54293 134.046 5.54293C138.782 5.54293 138.771 1.0137 143.497 1.0137C148.223 1.0137 148.223 5.54293 152.959 5.54293C157.695 5.54293 157.685 1.0137 162.421 1.0137C167.157 1.0137 167.146 5.54293 171.872 5.54293C176.598 5.54293 176.608 1.0137 181.334 1.0137C186.059 1.0137 186.059 5.54293 190.785 5.54293C195.511 5.54293 195.521 1.0137 200.247 1.0137C204.972 1.0137 204.972 5.54293 209.709 5.54293C214.445 5.54293 214.434 1.0137 219.16 1.0137C223.885 1.0137 223.896 5.54293 228.622 5.54293C233.347 5.54293 233.358 1.0137 238.083 1.0137C242.809 1.0137 242.809 5.54293 247.535 5.54293C252.26 5.54293 252.271 1.0137 256.996 1.0137C261.722 1.0137 261.733 5.54293 266.458 5.54293C271.184 5.54293 271.184 1.0137 275.92 1.0137C280.656 1.0137 280.646 5.54293 285.382 5.54293C290.118 5.54293 290.108 1.0137 294.833 1.0137C299.559 1.0137 299.569 5.54293 304.295 5.54293C309.021 5.54293 309.021 1.0137 313.757 1.0137C318.493 1.0137 318.482 5.54293 323.219 5.54293C327.955 5.54293 327.944 1.0137 332.67 1.0137C337.395 1.0137 337.406 5.54293 342.132 5.54293C346.857 5.54293 346.868 1.0137 351.593 1.0137C356.319 1.0137 356.33 5.54293 361.055 5.54293C365.781 5.54293 365.792 1.0137 370.517 1.0137C375.243 1.0137 375.243 5.54293 379.979 5.54293C384.715 5.54293 384.705 1.0137 389.441 1.0137C394.177 1.0137 394.166 5.54293 398.903 5.54293C403.639 5.54293 403.628 1.0137 408.364 1.0137C413.101 1.0137 413.09 5.54293 417.826 5.54293C422.562 5.54293 422.552 1.0137 427.277 1.0137C432.003 1.0137 432.014 5.54293 436.739 5.54293C441.465 5.54293 441.476 1.0137 446.201 1.0137C450.927 1.0137 450.937 5.54293 455.663 5.54293C460.389 5.54293 460.399 1.0137 465.125 1.0137C469.85 1.0137 469.861 5.54293 474.587 5.54293C479.312 5.54293 479.323 1.0137 484.048 1.0137C488.774 1.0137 488.785 5.54293 493.51 5.54293C498.236 5.54293 498.246 1.0137 502.972 1.0137C507.698 1.0137 507.708 5.54293 512.434 5.54293C517.159 5.54293 517.17 1.0137 521.906 1.0137C526.643 1.0137 526.632 5.54293 531.368 5.54293C536.104 5.54293 536.094 1.0137 540.819 1.0137C545.545 1.0137 545.556 5.54293 550.281 5.54293C555.007 5.54293 555.017 1.0137 559.743 1.0137C564.469 1.0137 564.469 5.54293 569.205 5.54293C573.941 5.54293 573.93 1.0137 578.667 1.0137C583.403 1.0137 583.392 5.54293 588.129 5.54293C592.865 5.54293 592.854 1.0137 597.58 1.0137C602.305 1.0137 602.316 5.54293 607.052 5.54293C611.788 5.54293 611.778 1.0137 616.503 1.0137C621.229 1.0137 621.24 5.54293 625.976 5.54293C630.712 5.54293 630.701 1.0137 635.438 1.0137C640.174 1.0137 640.174 5.54293 644.9 5.54293C649.625 5.54293 649.636 1.0137 654.361 1.0137C659.087 1.0137 659.098 5.54293 663.834 5.54293C668.57 5.54293 668.559 1.0137 673.296 1.0137C678.032 1.0137 678.032 5.54293 682.758 5.54293C687.483 5.54293 687.494 1.0137 692.23 1.0137C696.966 1.0137 696.956 5.54293 701.692 5.54293C706.428 5.54293 706.417 1.0137 711.154 1.0137C715.89 1.0137 715.89 5.54293 720.615 5.54293C725.341 5.54293 725.352 1.0137 730.088 1.0137C734.824 1.0137 734.824 5.54293 739.55 5.54293C744.275 5.54293 744.286 1.0137 749.022 1.0137C753.758 1.0137 753.769 5.54293 758.505 5.54293C763.242 5.54293 763.231 1.0137 767.956 1.0137C772.682 1.0137 772.682 5.54293 777.418 5.54293C782.155 5.54293 782.144 1.0137 786.87 1.0137C791.595 1.0137 791.606 5.54293 796.331 5.54293C801.057 5.54293 801.057 1.0137 805.783 1.0137C810.508 1.0137 810.519 5.54293 815.244 5.54293C819.97 5.54293 819.97 1.0137 824.696 1.0137C829.421 1.0137 829.421 5.54293 834.147 5.54293C838.872 5.54293 838.883 1.0137 843.609 1.0137C848.334 1.0137 848.334 5.54293 853.06 5.54293C857.785 5.54293 857.796 1.0137 862.522 1.0137C867.247 1.0137 867.258 5.54293 871.983 5.54293C876.709 5.54293 876.709 1.0137 881.435 1.0137C886.16 1.0137 886.171 5.54293 890.896 5.54293C895.622 5.54293 895.622 1.0137 900.348 1.0137C905.073 1.0137 905.073 5.54293 909.809 5.54293C914.546 5.54293 914.535 1.0137 919.261 1.0137C923.986 1.0137 923.997 5.54293 928.722 5.54293C933.448 5.54293 933.448 1.0137 938.184 1.0137C942.921 1.0137 942.91 5.54293 947.635 5.54293C952.361 5.54293 952.372 1.0137 957.097 1.0137C961.823 1.0137 961.823 5.54293 966.548 5.54293C971.274 5.54293 971.285 1.0137 976.01 1.0137C980.736 1.0137 980.747 5.54293 985.472 5.54293C990.198 5.54293 990.198 1.0137 994.934 1.0137C999.67 1.0137 999.66 5.54293 1004.39 5.54293C1009.11 5.54293 1009.12 1.0137 1013.85 1.0137C1018.57 1.0137 1018.57 5.54293 1023.31 5.54293C1028.05 5.54293 1028.03 1.0137 1032.76 1.0137C1037.49 1.0137 1037.5 5.54293 1042.22 5.54293C1046.95 5.54293 1046.96 1.0137 1051.68 1.0137C1056.41 1.0137 1056.41 5.54293 1061.15 5.54293C1065.88 5.54293 1065.87 1.0137 1070.6 1.0137C1075.32 1.0137 1075.33 5.54293 1080.06 5.54293C1084.78 5.54293 1084.79 1.0137 1089.52 1.0137C1094.25 1.0137 1094.26 5.54293 1098.98 5.54293C1103.71 5.54293 1103.71 1.0137 1108.44 1.0137C1113.18 1.0137 1113.17 5.54293 1117.91 5.54293C1122.64 5.54293 1122.63 1.0137 1127.37 1.0137C1132.1 1.0137 1132.09 5.54293 1136.82 5.54293C1141.54 5.54293 1141.56 1.0137 1146.28 1.0137C1151.01 1.0137 1151.02 5.54293 1155.74 5.54293C1160.47 5.54293 1160.48 1.0137 1165.2 1.0137C1169.93 1.0137 1169.94 5.54293 1174.67 5.54293C1179.39 5.54293 1179.4 1.0137 1184.13 1.0137C1188.85 1.0137 1188.85 5.54293 1193.59 5.54293C1198.33 5.54293 1198.32 1.0137 1203.05 1.0137C1207.79 1.0137 1207.78 5.54293 1212.51 5.54293C1217.25 5.54293 1217.24 1.0137 1221.98 1.0137C1226.71 1.0137 1226.7 5.54293 1231.44 5.54293C1236.17 5.54293 1236.16 1.0137 1240.9 1.0137C1245.64 1.0137 1245.62 5.54293 1250.36 5.54293C1255.1 5.54293 1255.09 1.0137 1259.82 1.0137C1264.56 1.0137 1264.55 5.54293 1269.28 5.54293C1274.02 5.54293 1274.02 1.0137 1278.75 1.0137C1283.47 1.0137 1283.48 5.54293 1288.21 5.54293C1292.93 5.54293 1292.94 1.0137 1297.67 1.0137C1302.4 1.0137 1302.4 5.54293 1307.13 5.54293C1311.87 5.54293 1311.86 1.0137 1316.59 1.0137C1321.33 1.0137 1321.32 5.54293 1326.04 5.54293C1330.77 5.54293 1330.78 1.0137 1335.51 1.0137C1340.23 1.0137 1340.24 5.54293 1344.97 5.54293C1349.69 5.54293 1349.7 1.0137 1354.43 1.0137C1359.16 1.0137 1359.17 5.54293 1363.89 5.54293C1368.62 5.54293 1368.63 1.0137 1373.35 1.0137C1378.08 1.0137 1378.09 5.54293 1382.82 5.54293C1387.54 5.54293 1387.55 1.0137 1392.28 1.0137C1397 1.0137 1397.01 5.54293 1401.75 5.54293C1406.49 5.54293 1406.48 1.0137 1411.21 1.0137C1415.95 1.0137 1415.94 5.54293 1420.67 5.54293C1425.41 5.54293 1425.41 1.0137 1430.14 1.0137C1434.86 1.0137 1434.87 5.54293 1439.61 5.54293C1444.34 5.54293 1444.33 1.0137 1449.07 1.0137C1453.81 1.0137 1453.8 5.54293 1458.53 5.54293C1463.27 5.54293 1463.27 1.0137 1467.99 1.0137C1472.72 1.0137 1472.73 5.54293 1477.46 5.54293C1482.18 5.54293 1482.19 1.0137 1486.93 1.0137C1491.66 1.0137 1491.66 5.54293 1496.4 5.54293C1501.14 5.54293 1501.13 1.0137 1505.86 1.0137C1510.6 1.0137 1511.5 6.29782 1516.1 5.48256C1521.16 4.59181 1520.35 0.74195 1525.06 1.0137Z" fill="#4361EE"/>
<path d="M1525.06 0.0137035C1525.45 0.0137035 1521.61 2.55007 1521.61 2.82183C1521.61 3.09358 1528 3.09358 1528 3.36534C1528 3.63709 1521.61 3.64465 1521.61 3.9164C1521.61 4.18816 1528 4.18816 1528 4.45991C1528 4.73166 1521.61 4.73165 1521.61 5.01095C1521.61 5.29025 1528 5.28271 1528 5.55446C1528 5.82621 1521.61 5.82622 1521.61 6.09797C1521.61 6.36972 1528 6.37728 1528 6.64903C1528 6.92079 1521.61 6.92079 1521.61 7.19254C1521.61 7.4643 1528 7.47183 1528 7.74359C1528 8.01534 1521.61 8.01535 1521.61 8.29465C1521.61 8.57395 1528 8.5664 1528 8.83816C1528 9.10991 1521.61 9.11747 1521.61 9.38922C1521.61 9.66098 1528 9.66098 1528 9.93273C1528 10.2045 1521.61 10.212 1521.61 10.4838C1521.61 10.7555 1528 10.7555 1528 11.0273C1528 11.299 1521.61 11.299 1521.61 11.5708C1521.61 11.8425 1528 11.8426 1528 12.1219C1528 12.4012 1521.61 12.3936 1521.61 12.6654C1521.61 12.9371 1528 12.9371 1528 13.2089C1528 13.4806 1521.61 13.4806 1521.61 13.7524C1521.61 14.0241 1528 14.0241 1528 14.3034C1528 14.5827 1521.61 14.5752 1521.61 14.8469C1521.61 15.1187 1528 15.1262 1528 15.398C1528 15.6698 1521.61 15.6697 1521.61 15.949C1521.61 16.2283 1528 16.2208 1528 16.4925C1528 16.7643 1521.61 16.7643 1521.61 17.0436C1521.61 17.3229 1528 17.3154 1528 17.5871C1528 17.8589 1521.61 17.8589 1521.61 18.1306C1521.61 18.4024 1528 18.4024 1528 18.6817C1528 18.961 1521.61 18.9535 1521.61 19.2252C1521.61 19.497 1528 19.497 1528 19.7687C1528 20.0405 1521.61 20.0405 1521.61 20.3122C1521.61 20.584 1528 20.584 1528 20.8633C1528 21.1426 1521.61 21.135 1521.61 21.4068C1521.61 21.6785 1528 21.6785 1528 21.9503C1528 22.222 1521.61 22.222 1521.61 22.4938C1521.61 22.7655 1528 22.7731 1528 23.0449C1528 23.3166 1521.61 23.3166 1521.61 23.5884C1521.61 23.8601 1528 23.8677 1528 24.1394C1528 24.4112 1521.61 24.4112 1521.61 24.6905C1521.61 24.9698 1528 24.9622 1528 25.2415C1528 25.5208 1521.61 25.5133 1521.61 25.785C1521.61 26.0568 1528 26.0643 1528 26.3361C1528 26.6078 1521.61 26.6078 1521.61 26.8796C1521.61 27.1513 1528 27.1589 1528 27.4307C1528 27.7024 1521.61 27.7024 1521.61 27.9742C1521.61 28.2459 1528 28.2535 1528 28.5252C1528 28.797 1521.61 28.797 1521.61 29.0687C1521.61 29.3405 1528 29.348 1528 29.6198C1528 29.8915 1521.61 29.8991 1521.61 30.1708C1521.61 30.4426 1528 30.4426 1528 30.7219C1528 31.0012 1521.61 30.9937 1521.61 31.273C1521.61 31.5523 1528 31.5447 1528 31.8165C1528 32.0882 1521.61 32.0958 1521.61 32.3675C1521.61 32.6393 1528 32.6393 1528 32.9186C1528 33.1979 1521.61 33.1903 1521.61 33.4621C1521.61 33.7338 1528 33.7414 1528 34.0131C1528 34.2849 1521.61 34.2924 1521.61 34.5642C1521.61 34.8359 1528 34.8359 1528 35.1152C1528 35.3946 1521.61 35.387 1521.61 35.6663C1521.61 35.9456 1528 35.9381 1528 36.2098C1528 36.4816 1521.61 36.4891 1521.61 36.7609C1521.61 37.0326 1528 37.0326 1528 37.3044C1528 37.5761 1521.61 37.5761 1521.61 37.8554C1521.61 38.1347 1528 38.1272 1528 38.3989C1528 38.6707 1521.61 38.6782 1521.61 38.95C1521.61 39.2217 1528 39.2293 1528 39.5011C1528 39.7728 1521.61 39.7804 1521.61 40.0521C1521.61 40.3239 1528 40.3239 1528 40.6032C1528 40.8825 1521.61 40.8749 1521.61 41.1542C1521.61 41.4335 1528 41.426 1528 41.7053C1528 41.9846 1521.61 41.977 1521.61 42.2563C1521.61 42.5356 1528 42.5281 1528 42.8074C1528 43.0867 1521.61 43.0867 1521.61 43.3585C1521.61 43.6302 1528 43.6377 1528 43.9095C1528 44.1813 1521.61 44.1888 1521.61 44.4606C1521.61 44.7323 1528 44.7399 1528 45.0192C1528 45.2985 1521.61 45.2909 1521.61 45.5702C1521.61 45.8495 1528 45.8495 1528 46.1289C1528 46.4082 1521.61 46.4006 1521.61 46.6799C1521.61 46.9592 1528 46.9516 1528 47.2309C1528 47.5102 1521.61 47.5027 1521.61 47.7745C1521.61 48.0462 1528 48.0462 1528 48.318C1528 48.5897 1521.61 48.5972 1521.61 48.869C1521.61 49.1407 1528 49.1408 1528 49.4125C1528 49.6843 1521.61 49.6918 1521.61 49.9636C1521.61 50.2353 1528 50.2353 1528 50.5071C1528 50.7789 1521.61 50.7788 1521.61 51.0581C1521.61 51.3374 1528 51.3299 1528 51.6017C1528 51.8734 1521.61 51.881 1521.61 52.1527C1521.61 52.4245 1528 52.4244 1528 52.6962C1528 52.968 1521.61 52.9755 1521.61 53.2473C1521.61 53.519 1528 53.519 1528 53.7983C1528 54.0776 1521.61 54.0701 1521.61 54.3418C1521.61 54.6136 1528 54.6136 1528 54.8929C1528 55.1722 1521.61 55.1646 1521.61 55.4364C1521.61 55.7081 1528 55.7082 1528 55.9799C1528 56.2517 1521.61 56.2517 1521.61 56.5234C1521.61 56.7952 1528 56.7952 1528 57.0669C1528 57.3387 1521.61 57.3462 1521.61 57.618C1521.61 57.8897 1528 57.8898 1528 58.1615C1528 58.4333 1521.61 58.4332 1521.61 58.705C1521.61 58.9767 1528 58.9843 1528 59.256C1528 59.5278 1521.61 59.5278 1521.61 59.8071C1521.61 60.0864 1528 60.0789 1528 60.3506C1528 60.6224 1521.61 60.6299 1521.61 60.9017C1521.61 61.1734 1528 61.1734 1528 61.4452C1528 61.7169 1521.61 61.7169 1521.61 61.9962C1521.61 62.2755 1528 62.268 1528 62.5398C1528 62.8115 1521.61 62.8115 1521.61 63.0832C1521.61 63.355 1528 63.355 1528 63.6343C1528 63.9136 1521.61 63.9061 1521.61 64.1778C1521.61 64.4496 1528 64.4495 1528 64.7213C1528 64.9931 1521.61 64.9931 1521.61 65.2648C1521.61 65.5366 1528 65.5366 1528 65.8159C1528 66.0952 1521.61 66.0877 1521.61 66.3594C1521.61 66.6312 1528 66.6311 1528 66.9029C1528 67.1747 1521.61 67.1747 1521.61 67.454C1521.61 67.7333 1528 67.7257 1528 67.9975C1528 68.2692 1521.61 68.2692 1521.61 68.5485C1521.61 68.8278 1528 68.8203 1528 69.0996C1528 69.3789 1521.61 69.3713 1521.61 69.6431C1521.61 69.9148 1528 69.9224 1528 70.1941C1528 70.4659 1521.61 70.4659 1521.61 70.7452C1521.61 71.0245 1528 71.0169 1528 71.2887C1528 71.5605 1521.61 71.5605 1521.61 71.8398C1521.61 72.1191 1528 72.1115 1528 72.3833C1528 72.655 1521.61 72.655 1521.61 72.9343C1521.61 73.2136 1528 73.2061 1528 73.4778C1528 73.7496 1521.61 73.7571 1521.61 74.0289C1521.61 74.3006 1528 74.3007 1528 74.58C1528 74.8593 1521.61 74.8517 1521.61 75.131C1521.61 75.4103 1528 75.4027 1528 75.6745C1528 75.9463 1521.61 75.9538 1521.61 76.2256C1521.61 76.4973 1528 76.4973 1528 76.7766C1528 77.0559 1521.61 77.0484 1521.61 77.3201C1521.61 77.5919 1528 77.5994 1528 77.8712C1528 78.143 1521.61 78.1505 1521.61 78.4222C1521.61 78.694 1528 78.694 1528 78.9733C1528 79.2526 1521.61 79.2451 1521.61 79.5244C1521.61 79.8037 1528 79.7961 1528 80.0679C1528 80.3396 1521.61 80.3472 1521.61 80.6189C1521.61 80.8907 1528 80.8907 1528 81.1624C1528 81.4342 1521.61 81.4417 1521.61 81.7135C1521.61 81.9852 1528 81.9853 1528 82.257C1528 82.5288 1521.61 82.5363 1521.61 82.8081C1521.61 83.0798 1528 83.0873 1528 83.3591C1528 83.6309 1521.61 83.6384 1521.61 83.9102C1521.61 84.1819 1528 84.1819 1528 84.4612C1528 84.7405 1521.61 84.733 1521.61 85.0123C1521.61 85.2916 1528 85.284 1528 85.5634C1528 85.8427 1521.61 85.8351 1521.61 86.1144C1521.61 86.3937 1528 86.3861 1528 86.6654C1528 86.9447 1521.61 86.9372 1521.61 87.2165C1521.61 87.4958 1528 87.4883 1528 87.7676C1528 88.0469 1521.61 88.0469 1521.61 88.3186C1521.61 88.5904 1528 88.5904 1528 88.8697C1528 89.149 1521.61 89.149 1521.61 89.4207C1521.61 89.6925 1528 89.7 1528 89.9793C1528 90.2586 1521.61 90.2586 1521.61 90.5304C1521.61 90.8021 1525.46 93.3234 1525.07 93.3461C1520.36 93.6254 1520.08 88.8168 1515.35 88.8168C1510.61 88.8168 1510.62 93.3461 1505.89 93.3461C1501.17 93.3461 1501.16 88.8168 1496.43 88.8168C1491.71 88.8168 1491.71 93.3461 1486.97 93.3461C1482.23 93.3461 1482.24 88.8168 1477.52 88.8168C1472.79 88.8168 1472.79 93.3461 1468.07 93.3461C1463.34 93.3461 1463.34 88.8168 1458.61 88.8168C1453.87 88.8168 1453.88 93.3461 1449.16 93.3461C1444.43 93.3461 1444.43 88.8168 1439.7 88.8168C1434.98 88.8168 1434.97 93.3461 1430.24 93.3461C1425.52 93.3461 1425.52 88.8168 1420.78 88.8168C1416.04 88.8168 1416.05 93.3461 1411.33 93.3461C1406.6 93.3461 1406.59 88.8168 1401.87 88.8168C1397.14 88.8168 1397.14 93.3461 1392.42 93.3461C1387.69 93.3461 1387.68 88.8168 1382.95 88.8168C1378.23 88.8168 1378.23 93.3461 1373.5 93.3461C1368.78 93.3461 1368.77 88.8168 1364.04 88.8168C1359.32 88.8168 1359.32 93.3461 1354.58 93.3461C1349.84 93.3461 1349.85 88.8168 1345.13 88.8168C1340.4 88.8168 1340.39 93.3461 1335.67 93.3461C1330.94 93.3461 1330.94 88.8168 1326.2 88.8168C1321.47 88.8168 1321.48 93.3461 1316.75 93.3461C1312.03 93.3461 1312.03 88.8168 1307.29 88.8168C1302.56 88.8168 1302.57 93.3461 1297.83 93.3461C1293.09 93.3461 1293.1 88.8168 1288.38 88.8168C1283.65 88.8168 1283.64 93.3461 1278.92 93.3461C1274.19 93.3461 1274.19 88.8168 1269.45 88.8168C1264.72 88.8168 1264.73 93.3461 1260 93.3461C1255.28 93.3461 1255.27 88.8168 1250.54 88.8168C1245.82 88.8168 1245.81 93.3461 1241.08 93.3461C1236.35 93.3461 1236.35 88.8168 1231.62 88.8168C1226.88 88.8168 1226.89 93.3461 1222.17 93.3461C1217.44 93.3461 1217.43 88.8168 1212.71 88.8168C1207.98 88.8168 1207.97 93.3461 1203.24 93.3461C1198.52 93.3461 1198.52 88.8168 1193.78 88.8168C1189.05 88.8168 1189.06 93.3461 1184.32 93.3461C1179.58 93.3461 1179.59 88.8168 1174.87 88.8168C1170.14 88.8168 1170.13 93.3461 1165.41 93.3461C1160.68 93.3461 1160.67 88.8168 1155.94 88.8168C1151.22 88.8168 1151.21 93.3461 1146.48 93.3461C1141.76 93.3461 1141.76 88.8168 1137.02 88.8168C1132.28 88.8168 1132.3 93.3461 1127.56 93.3461C1122.82 93.3461 1122.83 88.8168 1118.1 88.8168C1113.36 88.8168 1113.37 93.3461 1108.64 93.3461C1103.9 93.3461 1103.91 88.8168 1099.17 88.8168C1094.44 88.8168 1094.45 93.3461 1089.72 93.3461C1085 93.3461 1084.99 88.8168 1080.26 88.8168C1075.54 88.8168 1075.52 93.3461 1070.8 93.3461C1066.07 93.3461 1066.06 88.8168 1061.34 88.8168C1056.61 88.8168 1056.6 93.3461 1051.88 93.3461C1047.15 93.3461 1047.14 88.8168 1042.41 88.8168C1037.69 88.8168 1037.68 93.3461 1032.94 93.3461C1028.2 93.3461 1028.22 88.8168 1023.49 88.8168C1018.76 88.8168 1018.75 93.3461 1014.02 93.3461C1009.28 93.3461 1009.29 88.8168 1004.56 88.8168C999.819 88.8168 999.83 93.3461 995.094 93.3461C990.357 93.3461 990.368 88.8168 985.632 88.8168C980.896 88.8168 980.906 93.3461 976.181 93.3461C971.455 93.3461 971.444 88.8168 966.719 88.8168C961.993 88.8168 961.983 93.3461 957.257 93.3461C952.531 93.3461 952.531 88.8168 947.795 88.8168C943.059 88.8168 943.07 93.3461 938.333 93.3461C933.597 93.3461 933.608 88.8168 928.871 88.8168C924.135 88.8168 924.146 93.3461 919.41 93.3461C914.673 93.3461 914.684 88.8168 909.948 88.8168C905.212 88.8168 905.222 93.3461 900.486 93.3461C895.75 93.3461 895.76 88.8168 891.024 88.8168C886.288 88.8168 886.299 93.3461 881.562 93.3461C876.826 93.3461 876.826 88.8168 872.1 88.8168C867.375 88.8168 867.364 93.3461 862.639 93.3461C857.913 93.3461 857.902 88.8168 853.166 88.8168C848.43 88.8168 848.441 93.3461 843.704 93.3461C838.968 93.3461 838.968 88.8168 834.242 88.8168C829.517 88.8168 829.506 93.3461 824.77 93.3461C820.034 93.3461 820.044 88.8168 815.308 88.8168C810.572 88.8168 810.583 93.3461 805.846 93.3461C801.11 93.3461 801.11 88.8168 796.385 88.8168C791.659 88.8168 791.648 93.3461 786.912 93.3461C782.176 93.3461 782.176 88.8168 777.44 88.8168C772.703 88.8168 772.703 93.3461 767.967 93.3461C763.231 93.3461 763.231 88.8168 758.495 88.8168C753.758 88.8168 753.769 93.3461 749.043 93.3461C744.318 93.3461 744.318 88.8168 739.582 88.8168C734.845 88.8168 734.856 93.3461 730.12 93.3461C725.384 93.3461 725.394 88.8168 720.669 88.8168C715.943 88.8168 715.943 93.3461 711.207 93.3461C706.471 93.3461 706.481 88.8168 701.756 88.8168C697.03 88.8168 697.03 93.3461 692.304 93.3461C687.579 93.3461 687.579 88.8168 682.853 88.8168C678.128 88.8168 678.117 93.3461 673.391 93.3461C668.666 93.3461 668.666 88.8168 663.94 88.8168C659.215 88.8168 659.204 93.3461 654.478 93.3461C649.753 93.3461 649.742 88.8168 645.017 88.8168C640.291 88.8168 640.291 93.3461 635.555 93.3461C630.818 93.3461 630.829 88.8168 626.104 88.8168C621.378 88.8168 621.378 93.3461 616.652 93.3461C611.927 93.3461 611.916 88.8168 607.191 88.8168C602.465 88.8168 602.465 93.3461 597.739 93.3461C593.014 93.3461 593.003 88.8168 588.278 88.8168C583.552 88.8168 583.541 93.3461 578.816 93.3461C574.09 93.3461 574.09 88.8168 569.354 88.8168C564.618 88.8168 564.628 93.3461 559.903 93.3461C555.177 93.3461 555.177 88.8168 550.441 88.8168C545.705 88.8168 545.715 93.3461 540.99 93.3461C536.264 93.3461 536.253 88.8168 531.528 88.8168C526.802 88.8168 526.792 93.3461 522.066 93.3461C517.34 93.3461 517.34 88.8168 512.604 88.8168C507.868 88.8168 507.879 93.3461 503.153 93.3461C498.427 93.3461 498.427 88.8168 493.691 88.8168C488.955 88.8168 488.966 93.3461 484.229 93.3461C479.493 93.3461 479.504 88.8168 474.768 88.8168C470.031 88.8168 470.042 93.3461 465.316 93.3461C460.591 93.3461 460.58 88.8168 455.855 88.8168C451.129 88.8168 451.129 93.3461 446.393 93.3461C441.656 93.3461 441.667 88.8168 436.931 88.8168C432.195 88.8168 432.205 93.3461 427.48 93.3461C422.754 93.3461 422.743 88.8168 418.018 88.8168C413.292 88.8168 413.282 93.3461 408.556 93.3461C403.83 93.3461 403.83 88.8168 399.094 88.8168C394.358 88.8168 394.369 93.3461 389.632 93.3461C384.896 93.3461 384.907 88.8168 380.171 88.8168C375.434 88.8168 375.445 93.3461 370.719 93.3461C365.994 93.3461 365.983 88.8168 361.258 88.8168C356.532 88.8168 356.521 93.3461 351.796 93.3461C347.07 93.3461 347.059 88.8168 342.334 88.8168C337.608 88.8168 337.598 93.3461 332.872 93.3461C328.146 93.3461 328.136 88.8168 323.41 88.8168C318.685 88.8168 318.674 93.3461 313.948 93.3461C309.223 93.3461 309.212 88.8168 304.487 88.8168C299.761 88.8168 299.761 93.3461 295.025 93.3461C290.288 93.3461 290.299 88.8168 285.563 88.8168C280.827 88.8168 280.837 93.3461 276.101 93.3461C271.365 93.3461 271.375 88.8168 266.639 88.8168C261.903 88.8168 261.903 93.3461 257.177 93.3461C252.452 93.3461 252.441 88.8168 247.716 88.8168C242.99 88.8168 242.979 93.3461 238.254 93.3461C233.528 93.3461 233.518 88.8168 228.792 88.8168C224.066 88.8168 224.056 93.3461 219.33 93.3461C214.604 93.3461 214.594 88.8168 209.868 88.8168C205.143 88.8168 205.143 93.3461 200.406 93.3461C195.67 93.3461 195.681 88.8168 190.955 88.8168C186.23 88.8168 186.219 93.3461 181.493 93.3461C176.768 93.3461 176.757 88.8168 172.032 88.8168C167.306 88.8168 167.295 93.3461 162.57 93.3461C157.844 93.3461 157.834 88.8168 153.108 88.8168C148.382 88.8168 148.372 93.3461 143.646 93.3461C138.921 93.3461 138.91 88.8168 134.184 88.8168C129.459 88.8168 129.448 93.3461 124.722 93.3461C119.997 93.3461 119.986 88.8168 115.25 88.8168C110.514 88.8168 110.524 93.3461 105.788 93.3461C101.052 93.3461 101.063 88.8168 96.3263 88.8168C91.5901 88.8168 91.5901 93.3461 86.8645 93.3461C82.1389 93.3461 82.1282 88.8168 77.392 88.8168C72.6558 88.8168 72.6664 93.3461 67.9302 93.3461C63.1939 93.3461 63.1939 88.8168 58.4683 88.8168C53.7428 88.8168 53.7321 93.3461 49.0065 93.3461C44.2809 93.3461 44.2703 88.8168 39.534 88.8168C34.7978 88.8168 34.8084 93.3461 30.0722 93.3461C25.336 93.3461 25.336 88.8168 20.5997 88.8168C15.8635 88.8168 15.8741 93.3461 11.1379 93.3461C6.40168 93.3461 6.40168 88.8168 1.66544 88.8168C-3.0708 88.8168 -3.34752 93.6103 -8.07311 93.3461C-8.45627 93.3461 -4.61406 90.8172 -4.61406 90.5455C-4.61406 90.2737 -11 90.2662 -11 89.9944C-11 89.7227 -4.61406 89.7227 -4.61406 89.4509C-4.61406 89.1792 -11 89.1792 -11 88.8999C-11 88.6206 -4.61406 88.6281 -4.61406 88.3564C-4.61406 88.0846 -11 88.0846 -11 87.8129C-11 87.5411 -4.61406 87.5336 -4.61406 87.2618C-4.61406 86.9901 -11 86.99 -11 86.7183C-11 86.4465 -4.61406 86.439 -4.61406 86.1672C-4.61406 85.8955 -11 85.8955 -11 85.6162C-11 85.3369 -4.61406 85.3444 -4.61406 85.0727C-4.61406 84.8009 -11 84.7934 -11 84.5216C-11 84.2499 -4.61406 84.2498 -4.61406 83.9781C-4.61406 83.7063 -11 83.6988 -11 83.4271C-11 83.1553 -4.61406 83.1553 -4.61406 82.876C-4.61406 82.5967 -11 82.6042 -11 82.3325C-11 82.0607 -4.61406 82.0607 -4.61406 81.789C-4.61406 81.5172 -11 81.5172 -11 81.2455C-11 80.9737 -4.61406 80.9737 -4.61406 80.702C-4.61406 80.4302 -11 80.4302 -11 80.1584C-11 79.8867 -4.61406 79.8792 -4.61406 79.6074C-4.61406 79.3356 -11 79.3356 -11 79.0639C-11 78.7921 -4.61406 78.7921 -4.61406 78.5128C-4.61406 78.2335 -11 78.2411 -11 77.9693C-11 77.6976 -4.61406 77.69 -4.61406 77.4183C-4.61406 77.1465 -11 77.1465 -11 76.8672C-11 76.5879 -4.61406 76.5955 -4.61406 76.3237C-4.61406 76.052 -11 76.0519 -11 75.7802C-11 75.5084 -4.61406 75.5009 -4.61406 75.2292C-4.61406 74.9574 -11 74.9574 -11 74.6856C-11 74.4139 -4.61406 74.4139 -4.61406 74.1421C-4.61406 73.8704 -11 73.8704 -11 73.591C-11 73.3117 -4.61406 73.3193 -4.61406 73.0476C-4.61406 72.7758 -11 72.7758 -11 72.5041C-11 72.2323 -4.61406 72.2323 -4.61406 71.9605C-4.61406 71.6888 -11 71.6888 -11 71.4095C-11 71.1302 -4.61406 71.1377 -4.61406 70.866C-4.61406 70.5942 -11 70.5942 -11 70.3225C-11 70.0507 -4.61406 70.0432 -4.61406 69.7714C-4.61406 69.4996 -11 69.4997 -11 69.2204C-11 68.9411 -4.61406 68.9486 -4.61406 68.6769C-4.61406 68.4051 -11 68.3975 -11 68.1258C-11 67.854 -4.61406 67.854 -4.61406 67.5747C-4.61406 67.2954 -11 67.303 -11 67.0313C-11 66.7595 -4.61406 66.7519 -4.61406 66.4802C-4.61406 66.2084 -11 66.2084 -11 65.9367C-11 65.6649 -4.61406 65.6573 -4.61406 65.3856C-4.61406 65.1138 -11 65.1139 -11 64.8421C-11 64.5704 -4.61406 64.5628 -4.61406 64.2911C-4.61406 64.0193 -11 64.0193 -11 63.74C-11 63.4607 -4.61406 63.4682 -4.61406 63.1965C-4.61406 62.9247 -11 62.9172 -11 62.6454C-11 62.3737 -4.61406 62.3661 -4.61406 62.0944C-4.61406 61.8226 -11 61.8226 -11 61.5433C-11 61.264 -4.61406 61.2716 -4.61406 60.9923C-4.61406 60.713 -11 60.7205 -11 60.4487C-11 60.177 -4.61406 60.1695 -4.61406 59.8977C-4.61406 59.626 -11 59.6259 -11 59.3466C-11 59.0673 -4.61406 59.0749 -4.61406 58.7956C-4.61406 58.5163 -11 58.5238 -11 58.2521C-11 57.9803 -4.61406 57.9728 -4.61406 57.701C-4.61406 57.4292 -11 57.4217 -11 57.15C-11 56.8782 -4.61406 56.8782 -4.61406 56.6064C-4.61406 56.3347 -11 56.3347 -11 56.0554C-11 55.7761 -4.61406 55.7837 -4.61406 55.5119C-4.61406 55.2402 -11 55.2326 -11 54.9608C-11 54.6891 -4.61406 54.6815 -4.61406 54.4098C-4.61406 54.138 -11 54.138 -11 53.8587C-11 53.5794 -4.61406 53.5869 -4.61406 53.3076C-4.61406 53.0283 -11 53.0359 -11 52.7642C-11 52.4924 -4.61406 52.4849 -4.61406 52.2131C-4.61406 51.9414 -11 51.9338 -11 51.662C-11 51.3903 -4.61406 51.3827 -4.61406 51.111C-4.61406 50.8392 -11 50.8317 -11 50.5524C-11 50.2731 -4.61406 50.2806 -4.61406 50.0013C-4.61406 49.722 -11 49.7296 -11 49.4503C-11 49.171 -4.61406 49.1785 -4.61406 48.8992C-4.61406 48.6199 -11 48.6275 -11 48.3482C-11 48.0689 -4.61406 48.0688 -4.61406 47.7895C-4.61406 47.5102 -11 47.5178 -11 47.2385C-11 46.9592 -4.61406 46.9592 -4.61406 46.6799C-4.61406 46.4006 -11 46.4081 -11 46.1364C-11 45.8646 -4.61406 45.8646 -4.61406 45.5853C-4.61406 45.306 -11 45.3136 -11 45.0418C-11 44.7701 -4.61406 44.7701 -4.61406 44.4983C-4.61406 44.2266 -11 44.219 -11 43.9473C-11 43.6755 -4.61406 43.6755 -4.61406 43.4038C-4.61406 43.132 -11 43.132 -11 42.8527C-11 42.5734 -4.61406 42.5809 -4.61406 42.3092C-4.61406 42.0374 -11 42.0374 -11 41.7581C-11 41.4788 -4.61406 41.4864 -4.61406 41.2146C-4.61406 40.9429 -11 40.9353 -11 40.6636C-11 40.3918 -4.61406 40.3918 -4.61406 40.1125C-4.61406 39.8332 -11 39.8407 -11 39.569C-11 39.2972 -4.61406 39.2973 -4.61406 39.0179C-4.61406 38.7386 -11 38.7462 -11 38.4744C-11 38.2027 -4.61406 38.1951 -4.61406 37.9234C-4.61406 37.6516 -11 37.6516 -11 37.3799C-11 37.1081 -4.61406 37.1081 -4.61406 36.8364C-4.61406 36.5646 -11 36.5646 -11 36.2929C-11 36.0211 -4.61406 36.0211 -4.61406 35.7493C-4.61406 35.4776 -11 35.4776 -11 35.1983C-11 34.919 -4.61406 34.9265 -4.61406 34.6548C-4.61406 34.383 -11 34.383 -11 34.1113C-11 33.8395 -4.61406 33.832 -4.61406 33.5602C-4.61406 33.2885 -11 33.2885 -11 33.0092C-11 32.7298 -4.61406 32.7374 -4.61406 32.4656C-4.61406 32.1939 -11 32.1864 -11 31.9146C-11 31.6428 -4.61406 31.6428 -4.61406 31.3711C-4.61406 31.0993 -11 31.0993 -11 30.82C-11 30.5407 -4.61406 30.5483 -4.61406 30.2765C-4.61406 30.0048 -11 30.0048 -11 29.733C-11 29.4613 -4.61406 29.4613 -4.61406 29.1895C-4.61406 28.9177 -11 28.9178 -11 28.6385C-11 28.3592 -4.61406 28.3667 -4.61406 28.0949C-4.61406 27.8232 -11 27.8232 -11 27.5514C-11 27.2797 -4.61406 27.2797 -4.61406 27.0079C-4.61406 26.7362 -11 26.7286 -11 26.4569C-11 26.1851 -4.61406 26.1851 -4.61406 25.9134C-4.61406 25.6416 -11 25.6416 -11 25.3623C-11 25.083 -4.61406 25.0905 -4.61406 24.8188C-4.61406 24.547 -11 24.5395 -11 24.2677C-11 23.996 -4.61406 23.9884 -4.61406 23.7167C-4.61406 23.4449 -11 23.4449 -11 23.1656C-11 22.8863 -4.61406 22.8939 -4.61406 22.6221C-4.61406 22.3504 -11 22.3504 -11 22.0711C-11 21.7918 -4.61406 21.7993 -4.61406 21.5276C-4.61406 21.2558 -11 21.2558 -11 20.9765C-11 20.6972 -4.61406 20.7047 -4.61406 20.433C-4.61406 20.1612 -11 20.1612 -11 19.8819C-11 19.6026 -4.61406 19.6102 -4.61406 19.3384C-4.61406 19.0667 -11 19.0591 -11 18.7874C-11 18.5156 -4.61406 18.5081 -4.61406 18.2363C-4.61406 17.9646 -11 17.9646 -11 17.6853C-11 17.406 -4.61406 17.4135 -4.61406 17.1342C-4.61406 16.8549 -11 16.8624 -11 16.5907C-11 16.3189 -4.61406 16.3114 -4.61406 16.0396C-4.61406 15.7679 -11 15.7679 -11 15.4886C-11 15.2093 -4.61406 15.2168 -4.61406 14.9375C-4.61406 14.6582 -11 14.6658 -11 14.394C-11 14.1223 -4.61406 14.1147 -4.61406 13.843C-4.61406 13.5712 -11 13.5637 -11 13.2919C-11 13.0201 -4.61406 13.0201 -4.61406 12.7408C-4.61406 12.4615 -11 12.4691 -11 12.1973C-11 11.9256 -4.61406 11.9256 -4.61406 11.6538C-4.61406 11.3821 -11 11.3745 -11 11.1028C-11 10.831 -4.61406 10.831 -4.61406 10.5517C-4.61406 10.2724 -11 10.28 -11 10.0007C-11 9.72136 -4.61406 9.72891 -4.61406 9.4496C-4.61406 9.1703 -11 9.17785 -11 8.90609C-11 8.63434 -4.61406 8.62678 -4.61406 8.35503C-4.61406 8.08328 -11 8.07574 -11 7.80399C-11 7.53223 -4.61406 7.52468 -4.61406 7.25292C-4.61406 6.98117 -11 6.97361 -11 6.70186C-11 6.4301 -4.61406 6.42257 -4.61406 6.15082C-4.61406 5.87906 -11 5.87152 -11 5.59222C-11 5.31292 -4.61406 5.32046 -4.61406 5.04115C-4.61406 4.76185 -11 4.76939 -11 4.49009C-11 4.21079 -4.61406 4.21835 -4.61406 3.93905C-4.61406 3.65974 -11 3.65974 -11 3.38798C-11 3.11623 -4.61406 3.10869 -4.61406 2.82938C-4.61406 2.55008 -8.45627 0.0137035 -8.07311 0.0137035C-3.35816 -0.25805 -3.08144 4.54293 1.64415 4.54293C6.36975 4.54293 6.38039 0.0137035 11.106 0.0137035C15.8316 0.0137035 15.8316 4.54293 20.5678 4.54293C25.304 4.54293 25.2934 0.0137035 30.0296 0.0137035C34.7659 0.0137035 34.7552 4.54293 39.4808 4.54293C44.2064 4.54293 44.2064 0.0137035 48.932 0.0137035C53.6576 0.0137035 53.6576 4.54293 58.3832 4.54293C63.1088 4.54293 63.1194 0.0137035 67.845 0.0137035C72.5706 0.0137035 72.5706 4.54293 77.2962 4.54293C82.0218 4.54293 82.0218 0.0137035 86.758 0.0137035C91.4943 0.0137035 91.4836 4.54293 96.2199 4.54293C100.956 4.54293 100.945 0.0137035 105.671 0.0137035C110.397 0.0137035 110.407 4.54293 115.133 4.54293C119.858 4.54293 119.858 0.0137035 124.584 0.0137035C129.31 0.0137035 129.31 4.54293 134.046 4.54293C138.782 4.54293 138.771 0.0137035 143.497 0.0137035C148.223 0.0137035 148.223 4.54293 152.959 4.54293C157.695 4.54293 157.685 0.0137035 162.421 0.0137035C167.157 0.0137035 167.146 4.54293 171.872 4.54293C176.598 4.54293 176.608 0.0137035 181.334 0.0137035C186.059 0.0137035 186.059 4.54293 190.785 4.54293C195.511 4.54293 195.521 0.0137035 200.247 0.0137035C204.972 0.0137035 204.972 4.54293 209.709 4.54293C214.445 4.54293 214.434 0.0137035 219.16 0.0137035C223.885 0.0137035 223.896 4.54293 228.622 4.54293C233.347 4.54293 233.358 0.0137035 238.083 0.0137035C242.809 0.0137035 242.809 4.54293 247.535 4.54293C252.26 4.54293 252.271 0.0137035 256.996 0.0137035C261.722 0.0137035 261.733 4.54293 266.458 4.54293C271.184 4.54293 271.184 0.0137035 275.92 0.0137035C280.656 0.0137035 280.646 4.54293 285.382 4.54293C290.118 4.54293 290.108 0.0137035 294.833 0.0137035C299.559 0.0137035 299.569 4.54293 304.295 4.54293C309.021 4.54293 309.021 0.0137035 313.757 0.0137035C318.493 0.0137035 318.482 4.54293 323.219 4.54293C327.955 4.54293 327.944 0.0137035 332.67 0.0137035C337.395 0.0137035 337.406 4.54293 342.132 4.54293C346.857 4.54293 346.868 0.0137035 351.593 0.0137035C356.319 0.0137035 356.33 4.54293 361.055 4.54293C365.781 4.54293 365.792 0.0137035 370.517 0.0137035C375.243 0.0137035 375.243 4.54293 379.979 4.54293C384.715 4.54293 384.705 0.0137035 389.441 0.0137035C394.177 0.0137035 394.166 4.54293 398.903 4.54293C403.639 4.54293 403.628 0.0137035 408.364 0.0137035C413.101 0.0137035 413.09 4.54293 417.826 4.54293C422.562 4.54293 422.552 0.0137035 427.277 0.0137035C432.003 0.0137035 432.014 4.54293 436.739 4.54293C441.465 4.54293 441.476 0.0137035 446.201 0.0137035C450.927 0.0137035 450.937 4.54293 455.663 4.54293C460.389 4.54293 460.399 0.0137035 465.125 0.0137035C469.85 0.0137035 469.861 4.54293 474.587 4.54293C479.312 4.54293 479.323 0.0137035 484.048 0.0137035C488.774 0.0137035 488.785 4.54293 493.51 4.54293C498.236 4.54293 498.246 0.0137035 502.972 0.0137035C507.698 0.0137035 507.708 4.54293 512.434 4.54293C517.159 4.54293 517.17 0.0137035 521.906 0.0137035C526.643 0.0137035 526.632 4.54293 531.368 4.54293C536.104 4.54293 536.094 0.0137035 540.819 0.0137035C545.545 0.0137035 545.556 4.54293 550.281 4.54293C555.007 4.54293 555.017 0.0137035 559.743 0.0137035C564.469 0.0137035 564.469 4.54293 569.205 4.54293C573.941 4.54293 573.93 0.0137035 578.667 0.0137035C583.403 0.0137035 583.392 4.54293 588.129 4.54293C592.865 4.54293 592.854 0.0137035 597.58 0.0137035C602.305 0.0137035 602.316 4.54293 607.052 4.54293C611.788 4.54293 611.778 0.0137035 616.503 0.0137035C621.229 0.0137035 621.24 4.54293 625.976 4.54293C630.712 4.54293 630.701 0.0137035 635.438 0.0137035C640.174 0.0137035 640.174 4.54293 644.9 4.54293C649.625 4.54293 649.636 0.0137035 654.361 0.0137035C659.087 0.0137035 659.098 4.54293 663.834 4.54293C668.57 4.54293 668.559 0.0137035 673.296 0.0137035C678.032 0.0137035 678.032 4.54293 682.758 4.54293C687.483 4.54293 687.494 0.0137035 692.23 0.0137035C696.966 0.0137035 696.956 4.54293 701.692 4.54293C706.428 4.54293 706.417 0.0137035 711.154 0.0137035C715.89 0.0137035 715.89 4.54293 720.615 4.54293C725.341 4.54293 725.352 0.0137035 730.088 0.0137035C734.824 0.0137035 734.824 4.54293 739.55 4.54293C744.275 4.54293 744.286 0.0137035 749.022 0.0137035C753.758 0.0137035 753.769 4.54293 758.505 4.54293C763.242 4.54293 763.231 0.0137035 767.956 0.0137035C772.682 0.0137035 772.682 4.54293 777.418 4.54293C782.155 4.54293 782.144 0.0137035 786.87 0.0137035C791.595 0.0137035 791.606 4.54293 796.331 4.54293C801.057 4.54293 801.057 0.0137035 805.783 0.0137035C810.508 0.0137035 810.519 4.54293 815.244 4.54293C819.97 4.54293 819.97 0.0137035 824.696 0.0137035C829.421 0.0137035 829.421 4.54293 834.147 4.54293C838.872 4.54293 838.883 0.0137035 843.609 0.0137035C848.334 0.0137035 848.334 4.54293 853.06 4.54293C857.785 4.54293 857.796 0.0137035 862.522 0.0137035C867.247 0.0137035 867.258 4.54293 871.983 4.54293C876.709 4.54293 876.709 0.0137035 881.435 0.0137035C886.16 0.0137035 886.171 4.54293 890.896 4.54293C895.622 4.54293 895.622 0.0137035 900.348 0.0137035C905.073 0.0137035 905.073 4.54293 909.809 4.54293C914.546 4.54293 914.535 0.0137035 919.261 0.0137035C923.986 0.0137035 923.997 4.54293 928.722 4.54293C933.448 4.54293 933.448 0.0137035 938.184 0.0137035C942.921 0.0137035 942.91 4.54293 947.635 4.54293C952.361 4.54293 952.372 0.0137035 957.097 0.0137035C961.823 0.0137035 961.823 4.54293 966.548 4.54293C971.274 4.54293 971.285 0.0137035 976.01 0.0137035C980.736 0.0137035 980.747 4.54293 985.472 4.54293C990.198 4.54293 990.198 0.0137035 994.934 0.0137035C999.67 0.0137035 999.66 4.54293 1004.39 4.54293C1009.11 4.54293 1009.12 0.0137035 1013.85 0.0137035C1018.57 0.0137035 1018.57 4.54293 1023.31 4.54293C1028.05 4.54293 1028.03 0.0137035 1032.76 0.0137035C1037.49 0.0137035 1037.5 4.54293 1042.22 4.54293C1046.95 4.54293 1046.96 0.0137035 1051.68 0.0137035C1056.41 0.0137035 1056.41 4.54293 1061.15 4.54293C1065.88 4.54293 1065.87 0.0137035 1070.6 0.0137035C1075.32 0.0137035 1075.33 4.54293 1080.06 4.54293C1084.78 4.54293 1084.79 0.0137035 1089.52 0.0137035C1094.25 0.0137035 1094.26 4.54293 1098.98 4.54293C1103.71 4.54293 1103.71 0.0137035 1108.44 0.0137035C1113.18 0.0137035 1113.17 4.54293 1117.91 4.54293C1122.64 4.54293 1122.63 0.0137035 1127.37 0.0137035C1132.1 0.0137035 1132.09 4.54293 1136.82 4.54293C1141.54 4.54293 1141.56 0.0137035 1146.28 0.0137035C1151.01 0.0137035 1151.02 4.54293 1155.74 4.54293C1160.47 4.54293 1160.48 0.0137035 1165.2 0.0137035C1169.93 0.0137035 1169.94 4.54293 1174.67 4.54293C1179.39 4.54293 1179.4 0.0137035 1184.13 0.0137035C1188.85 0.0137035 1188.85 4.54293 1193.59 4.54293C1198.33 4.54293 1198.32 0.0137035 1203.05 0.0137035C1207.79 0.0137035 1207.78 4.54293 1212.51 4.54293C1217.25 4.54293 1217.24 0.0137035 1221.98 0.0137035C1226.71 0.0137035 1226.7 4.54293 1231.44 4.54293C1236.17 4.54293 1236.16 0.0137035 1240.9 0.0137035C1245.64 0.0137035 1245.62 4.54293 1250.36 4.54293C1255.1 4.54293 1255.09 0.0137035 1259.82 0.0137035C1264.56 0.0137035 1264.55 4.54293 1269.28 4.54293C1274.02 4.54293 1274.02 0.0137035 1278.75 0.0137035C1283.47 0.0137035 1283.48 4.54293 1288.21 4.54293C1292.93 4.54293 1292.94 0.0137035 1297.67 0.0137035C1302.4 0.0137035 1302.4 4.54293 1307.13 4.54293C1311.87 4.54293 1311.86 0.0137035 1316.59 0.0137035C1321.33 0.0137035 1321.32 4.54293 1326.04 4.54293C1330.77 4.54293 1330.78 0.0137035 1335.51 0.0137035C1340.23 0.0137035 1340.24 4.54293 1344.97 4.54293C1349.69 4.54293 1349.7 0.0137035 1354.43 0.0137035C1359.16 0.0137035 1359.17 4.54293 1363.89 4.54293C1368.62 4.54293 1368.63 0.0137035 1373.35 0.0137035C1378.08 0.0137035 1378.09 4.54293 1382.82 4.54293C1387.54 4.54293 1387.55 0.0137035 1392.28 0.0137035C1397 0.0137035 1397.01 4.54293 1401.75 4.54293C1406.49 4.54293 1406.48 0.0137035 1411.21 0.0137035C1415.95 0.0137035 1415.94 4.54293 1420.67 4.54293C1425.41 4.54293 1425.41 0.0137035 1430.14 0.0137035C1434.86 0.0137035 1434.87 4.54293 1439.61 4.54293C1444.34 4.54293 1444.33 0.0137035 1449.07 0.0137035C1453.81 0.0137035 1453.8 4.54293 1458.53 4.54293C1463.27 4.54293 1463.27 0.0137035 1467.99 0.0137035C1472.72 0.0137035 1472.73 4.54293 1477.46 4.54293C1482.18 4.54293 1482.19 0.0137035 1486.93 0.0137035C1491.66 0.0137035 1491.66 4.54293 1496.4 4.54293C1501.14 4.54293 1501.13 0.0137035 1505.86 0.0137035C1510.6 0.0137035 1511.5 5.29782 1516.1 4.48256C1521.16 3.59181 1520.35 -0.25805 1525.06 0.0137035Z" fill="#FFFCEC"/>
</svg>
