<svg width="560" height="560" viewBox="0 0 560 560" fill="none" xmlns="http://www.w3.org/2000/svg">
<path d="M435.148 71.6333H124.852C95.4601 71.6333 71.6333 95.4601 71.6333 124.852V435.148C71.6333 464.54 95.4601 488.367 124.852 488.367H435.148C464.54 488.367 488.367 464.54 488.367 435.148V124.852C488.367 95.4601 464.54 71.6333 435.148 71.6333Z" fill="#FFFCF2"/>
<path d="M232.405 143.094H173.633V416.901H232.405V143.094Z" fill="#4361EE"/>
<path d="M422.123 177.343H139.482V231.415H422.123V177.343Z" fill="#4361EE"/>
<path d="M344.139 408.781C382.224 408.781 413.098 377.907 413.098 339.822C413.098 301.737 382.224 270.863 344.139 270.863C306.053 270.863 275.179 301.737 275.179 339.822C275.179 377.907 306.053 408.781 344.139 408.781Z" fill="#4361EE"/>
</svg>
